# xmcd
#
# Track frame offsets: 
#        300
#        15340
#        28411
#        45657
#        62210
#        76157
#        89587
#        106935
#        123831
#        137237
#        151288
#        165913
#        181909
#        195934
#        212626
#        225827
#        243900
#        264640
#        282194
#        304493
#
# Disc length: 4315 seconds
#
# Revision: 0
# Processed by: cddbd v1.5.2PL0 Copyright (c) Steve Scherf et al.
# Submitted via: ExactAudioCopy v0.99pb4
#
DISCID=0310d714
DTITLE=XARIS ALE3IOY - OI MEGALYTERES EPITYXIES THS
DYEAR=1987
DGENRE=Country
TTITLE0=H AGAPH EINAI ZALH
TTITLE1=TO GRAMMA
TTITLE2=BHMA BHMA
TTITLE3=ZHLEIA MOY
TTITLE4=OLES TOY KOSMOY OI KYRIAKES
TTITLE5=FEYGW
TTITLE6=3HMERWNEI
TTITLE7=O FANTAROS
TTITLE8=OI MAGKES DEN YPARXOYN PIA
TTITLE9=O KAI3HS
TTITLE10=MIA EINAI H OYSIA
TTITLE11=AN PE8ANEI MIA AGAPH
TTITLE12=OPOIA KAI NA'SAI
TTITLE13=ODOS ARISTOTELOYS
TTITLE14=CANTO PER ME
TTITLE15=KITRINH POLH
TTITLE16=ERWTIKO
TTITLE17=OLA SE 8YMIZOYN
TTITLE18=ELENH
TTITLE19=H MPALANTA THS IFIGENEIAS
EXTD=
EXTT0=
EXTT1=
EXTT2=
EXTT3=
EXTT4=
EXTT5=
EXTT6=
EXTT7=
EXTT8=
EXTT9=
EXTT10=
EXTT11=
EXTT12=
EXTT13=
EXTT14=
EXTT15=
EXTT16=
EXTT17=
EXTT18=
EXTT19=
PLAYORDER=
